# xmcd
#
# Track frame offsets:
#	150
#	17470
#	46222
#	65120
#	87137
#	107885
#	125367
#	147707
#	174405
#	192837
#	213127
#	234857
#
# Disc length: 3330 seconds
#
# Revision: 1
# Processed by: cddbd v1.4PL0 Copyright (c) Steve Scherf et al.
# Submitted via: audiograbber 1.81.03
#
DISCID=9f0d000c
DTITLE=Various Artist - Today's Blues - Vol 3
DYEAR=1986
DGENRE=Blues
TTITLE0=Albert Collins and Robert Cray - She's Into Something
TTITLE1=James Cotton - 23 Hours Too Long
TTITLE2=Johnny Winter - It's My Life Baby
TTITLE3=Lonnie Mack and Stevie Ray Vaughan - Oreo Cookie Blues
TTITLE4=Lonnie Brooks - I Want All My Money Back
TTITLE5=Koko Taylor - Queen Bee
TTITLE6=Albert Collins and Robert Cray - The Moon Is Full
TTITLE7=Big Twist and The Mellow Fellows - Just One Woman
TTITLE8=Son Seals - Cold Blood
TTITLE9=Lonnie Mack and Stevie Ray Vaughan - Satisfy Susie
TTITLE10=Johnny Winter - I Smell Trouble
TTITLE11=Roy Buchanan and Delbert McClinton - You Can't Judge A Book By The Cover
EXTD=
EXTT0=
EXTT1=
EXTT2=
EXTT3=
EXTT4=
EXTT5=
EXTT6=
EXTT7=
EXTT8=
EXTT9=
EXTT10=
EXTT11=
PLAYORDER=
